{
	"accessors" : 
	[
		{
			"bufferView" : 2,
			"byteOffset" : 0,
			"componentType" : 5126,
			"count" : 9590,
			"max" : 
			[
				0.3488648533821106,
				0.5542271137237549,
				0.3488648533821106,
				1
			],
			"min" : 
			[
				0.006584956776350737,
				0.006584956776350737,
				0.006584956776350737,
				1
			],
			"name" : "accessor_color_m0-PolyPaper9_-56790",
			"type" : "VEC4"
		},
		{
			"bufferView" : 2,
			"byteOffset" : 153440,
			"componentType" : 5126,
			"count" : 5740,
			"max" : 
			[
				1,
				0.835527777671814,
				0.7226724624633789,
				1
			],
			"min" : 
			[
				0.006584956776350737,
				0.006584956776350737,
				0.006584956776350737,
				1
			],
			"name" : "accessor_color_m1-PolyPaper23_-61028",
			"type" : "VEC4"
		},
		{
			"bufferView" : 2,
			"byteOffset" : 245280,
			"componentType" : 5126,
			"count" : 9668,
			"max" : 
			[
				0.3488648533821106,
				0.5542271137237549,
				0.3488648533821106,
				1
			],
			"min" : 
			[
				0.006584956776350737,
				0.006584956776350737,
				0.006584956776350737,
				1
			],
			"name" : "accessor_color_m2-PolyPaper20_-61014",
			"type" : "VEC4"
		},
		{
			"bufferView" : 0,
			"byteOffset" : 0,
			"componentType" : 5123,
			"count" : 13344,
			"max" : 
			[
				9589
			],
			"min" : 
			[
				0
			],
			"name" : "accessor_indices_0_m0-PolyPaper9_-56790",
			"type" : "SCALAR"
		},
		{
			"bufferView" : 0,
			"byteOffset" : 26688,
			"componentType" : 5123,
			"count" : 7908,
			"max" : 
			[
				5739
			],
			"min" : 
			[
				0
			],
			"name" : "accessor_indices_0_m1-PolyPaper23_-61028",
			"type" : "SCALAR"
		},
		{
			"bufferView" : 0,
			"byteOffset" : 42504,
			"componentType" : 5123,
			"count" : 13548,
			"max" : 
			[
				9667
			],
			"min" : 
			[
				0
			],
			"name" : "accessor_indices_0_m2-PolyPaper20_-61014",
			"type" : "SCALAR"
		},
		{
			"bufferView" : 1,
			"byteOffset" : 115080,
			"componentType" : 5126,
			"count" : 9590,
			"max" : 
			[
				0.999988,
				0.998731,
				0.9963154
			],
			"min" : 
			[
				-0.9984888,
				-0.9999591,
				-0.9984826
			],
			"name" : "accessor_normal_m0-PolyPaper9_-56790",
			"type" : "VEC3"
		},
		{
			"bufferView" : 1,
			"byteOffset" : 299040,
			"componentType" : 5126,
			"count" : 5740,
			"max" : 
			[
				1,
				1,
				1
			],
			"min" : 
			[
				-1,
				-1,
				-1
			],
			"name" : "accessor_normal_m1-PolyPaper23_-61028",
			"type" : "VEC3"
		},
		{
			"bufferView" : 1,
			"byteOffset" : 483936,
			"componentType" : 5126,
			"count" : 9668,
			"max" : 
			[
				0.999993,
				0.9998462,
				0.9960149
			],
			"min" : 
			[
				-0.9998723,
				-0.9996188,
				-0.9996954
			],
			"name" : "accessor_normal_m2-PolyPaper20_-61014",
			"type" : "VEC3"
		},
		{
			"bufferView" : 1,
			"byteOffset" : 0,
			"componentType" : 5126,
			"count" : 9590,
			"max" : 
			[
				0.8709401,
				1.867469,
				1.854318
			],
			"min" : 
			[
				-0.08163777999999999,
				-0.5402147,
				0.07289789000000001
			],
			"name" : "accessor_position_m0-PolyPaper9_-56790",
			"type" : "VEC3"
		},
		{
			"bufferView" : 1,
			"byteOffset" : 230160,
			"componentType" : 5126,
			"count" : 5740,
			"max" : 
			[
				1.569975,
				2.249976,
				2.109971
			],
			"min" : 
			[
				-0.6900262,
				-0.6600239,
				-0.1500303
			],
			"name" : "accessor_position_m1-PolyPaper23_-61028",
			"type" : "VEC3"
		},
		{
			"bufferView" : 1,
			"byteOffset" : 367920,
			"componentType" : 5126,
			"count" : 9668,
			"max" : 
			[
				1.048136,
				2.042511,
				1.803374
			],
			"min" : 
			[
				-0.1581827,
				-0.5504181,
				0.1598596
			],
			"name" : "accessor_position_m2-PolyPaper20_-61014",
			"type" : "VEC3"
		}
	],
	"asset" : 
	{
		"copyright" : "Unknown",
		"generator" : "glTF 1-to-2 Upgrader for Google Blocks",
		"version" : "2.0"
	},
	"bufferViews" : 
	[
		{
			"buffer" : 0,
			"byteLength" : 69600,
			"byteOffset" : 0,
			"name" : "ushortBufferView",
			"target" : 34963
		},
		{
			"buffer" : 0,
			"byteLength" : 599952,
			"byteOffset" : 69600,
			"byteStride" : 12,
			"name" : "vec3BufferView",
			"target" : 34962
		},
		{
			"buffer" : 0,
			"byteLength" : 399968,
			"byteOffset" : 669552,
			"byteStride" : 16,
			"name" : "vec4BufferView",
			"target" : 34962
		}
	],
	"buffers" : 
	[
		{
			"byteLength" : 1069520,
			"name" : "model",
			"uri" : "model.bin"
		}
	],
	"materials" : 
	[
		{
			"alphaMode" : "OPAQUE",
			"doubleSided" : false,
			"name" : "BlocksPaper",
			"pbrMetallicRoughness" : 
			{
				"baseColorFactor" : 
				[
					1,
					1,
					1,
					1
				],
				"metallicFactor" : 0,
				"roughnessFactor" : 0.6
			}
		},
		{
			"alphaMode" : "BLEND",
			"doubleSided" : false,
			"name" : "BlocksGlass",
			"pbrMetallicRoughness" : 
			{
				"baseColorFactor" : 
				[
					0.2,
					0.2,
					1,
					0.3
				],
				"metallicFactor" : 1,
				"roughnessFactor" : 0.4
			}
		},
		{
			"alphaMode" : "OPAQUE",
			"doubleSided" : true,
			"name" : "BlocksGem",
			"pbrMetallicRoughness" : 
			{
				"baseColorFactor" : 
				[
					1,
					0.4,
					1,
					1
				],
				"metallicFactor" : 0,
				"roughnessFactor" : 0.1
			}
		}
	],
	"meshes" : 
	[
		{
			"name" : "mesh_m0-PolyPaper9_-56790",
			"primitives" : 
			[
				{
					"attributes" : 
					{
						"COLOR_0" : 0,
						"NORMAL" : 6,
						"POSITION" : 9
					},
					"indices" : 3,
					"material" : 0,
					"mode" : 4
				}
			]
		},
		{
			"name" : "mesh_m1-PolyPaper23_-61028",
			"primitives" : 
			[
				{
					"attributes" : 
					{
						"COLOR_0" : 1,
						"NORMAL" : 7,
						"POSITION" : 10
					},
					"indices" : 4,
					"material" : 0,
					"mode" : 4
				}
			]
		},
		{
			"name" : "mesh_m2-PolyPaper20_-61014",
			"primitives" : 
			[
				{
					"attributes" : 
					{
						"COLOR_0" : 2,
						"NORMAL" : 8,
						"POSITION" : 11
					},
					"indices" : 5,
					"material" : 0,
					"mode" : 4
				}
			]
		}
	],
	"nodes" : 
	[
		{
			"matrix" : 
			[
				1,
				0,
				0,
				0,
				0,
				1,
				0,
				0,
				0,
				0,
				1,
				0,
				0,
				0,
				0,
				1
			],
			"mesh" : 1,
			"name" : "node_MeshObject-224717760-PolyPaper23"
		},
		{
			"matrix" : 
			[
				1,
				0,
				0,
				0,
				0,
				1,
				0,
				0,
				0,
				0,
				1,
				0,
				0,
				0,
				0,
				1
			],
			"mesh" : 0,
			"name" : "node_MeshObject1795359936-PolyPaper9"
		},
		{
			"matrix" : 
			[
				1,
				0,
				0,
				0,
				0,
				1,
				0,
				0,
				0,
				0,
				1,
				0,
				0,
				0,
				0,
				1
			],
			"mesh" : 2,
			"name" : "node_MeshObject1809303296-PolyPaper20"
		}
	],
	"scene" : 0,
	"scenes" : 
	[
		{
			"extras" : {},
			"name" : "defaultScene",
			"nodes" : 
			[
				1,
				0,
				2
			]
		}
	]
}